<?xml version="1.0" encoding="UTF-8" standalone="no"?>
<!DOCTYPE svg PUBLIC "-//W3C//DTD SVG 1.1//EN" "http://www.w3.org/Graphics/SVG/1.1/DTD/svg11.dtd">
<svg width="100%" height="100%" viewBox="0 0 15 11" version="1.1" xmlns="http://www.w3.org/2000/svg" xmlns:xlink="http://www.w3.org/1999/xlink" xml:space="preserve" xmlns:serif="http://www.serif.com/" style="fill-rule:evenodd;clip-rule:evenodd;stroke-linejoin:round;stroke-miterlimit:2;">
  <rect id="checkmark.white" x="0" y="0" width="15" height="11" style="fill:none;"/>
  <clipPath id="_clip1">
    <rect x="0" y="0" width="15" height="11"/>
  </clipPath>
  <g clip-path="url(#_clip1)">
    <path d="M14.376,0.394c-0.245,-0.252 -0.582,-0.394 -0.933,-0.394c-0.351,-0 -0.688,0.142 -0.933,0.394l-6.727,6.98c-0.097,0.099 -0.231,0.156 -0.37,0.156c-0.139,-0 -0.272,-0.057 -0.369,-0.156l-2.596,-2.683c-0.245,-0.252 -0.582,-0.394 -0.933,-0.394c-0.351,-0 -0.688,0.142 -0.933,0.394c-0.508,0.521 -0.508,1.364 -0,1.886l3.888,4.015c0.256,0.261 0.607,0.408 0.973,0.408c0.365,-0 0.716,-0.147 0.972,-0.408l8.01,-8.283c0.24,-0.251 0.374,-0.586 0.374,-0.933c0,-0.372 -0.153,-0.727 -0.423,-0.982Z" style="fill:#fff;fill-rule:nonzero;"/>
  </g>
</svg>
