<svg width="137" height="32" viewBox="0 0 137 32" fill="none" xmlns="http://www.w3.org/2000/svg">
<rect width="31.2696" height="31.3958" rx="7.62829" fill="white"/>
<path d="M50.6795 8.2594H48.049C47.9382 8.2594 47.8459 8.38047 47.8275 8.49223L46.3876 15.2909C46.5814 15.9521 46.7753 16.632 46.8122 16.7996C46.8306 16.8741 46.4984 16.5016 45.963 15.859C45.9354 15.8497 45.9169 15.831 45.8984 15.8124L39.6407 8.41772C39.5207 8.26871 39.2807 8.33391 39.2438 8.52017L36.3549 22.5458C36.3272 22.6949 36.4379 23.0208 36.5764 23.0208H39.2069C39.3176 23.0208 39.4099 22.7507 39.4284 22.6483L40.8774 15.6727C40.6005 14.8811 40.2498 13.8566 40.2037 13.6517C40.1483 13.4096 43.7294 17.8892 46.0923 20.8602L47.5967 22.5831C47.7259 22.7321 47.9567 22.6576 47.9936 22.4713L50.9102 8.58536C50.9379 8.44566 50.8271 8.2594 50.6795 8.2594Z" fill="white"/>
<path d="M64.2938 8.2594H55.1933C55.0826 8.2594 54.9903 8.37116 54.9718 8.48292L52.0829 22.5179C52.0552 22.6669 52.166 23.0115 52.3044 23.0115H61.5249C61.6357 23.0115 61.728 22.7414 61.7464 22.6297L62.291 20.0406C62.3187 19.8916 62.2079 19.8078 62.0695 19.8078H56.0517C55.904 19.8078 55.7932 19.5284 55.8302 19.3794L56.1809 17.6471C55.8486 17.554 55.5902 17.4329 55.4979 17.405C55.2487 17.3211 59.3467 17.2653 61.5711 17.2559C61.5803 17.2373 61.5895 17.2094 61.5988 17.1908L62.1525 14.7786C62.1802 14.6296 62.0787 14.6762 61.931 14.6762H57.1777C57.03 14.6762 56.9193 14.3502 56.9562 14.2105L57.4085 11.9102C56.9285 11.7705 56.5132 11.6028 56.3932 11.5563C56.0517 11.4445 63.8324 11.4166 63.8324 11.4166L63.537 11.4725H63.7678C63.8785 11.4725 63.9708 11.3793 63.9893 11.2769L64.5523 8.59468C64.5523 8.43635 64.4415 8.2594 64.2938 8.2594Z" fill="white"/>
<path d="M73.0983 8.13818C70.394 8.13818 67.8651 10.066 67.1544 13.5305L65.2992 22.5271C65.2715 22.6761 65.3823 23.002 65.5207 23.002H68.1512C68.2619 23.002 68.3542 22.732 68.3727 22.6202L68.9542 19.9101C68.9726 19.7983 69.0742 19.789 69.1757 19.789H72.923C73.0706 19.789 73.1814 19.7611 73.1445 19.9101L72.5999 22.6016C72.5722 22.7506 72.683 22.9927 72.8214 22.9927H75.4519C75.5627 22.9927 75.655 22.7227 75.6734 22.6202L77.5563 13.6237C78.2855 10.1591 75.7842 8.13818 73.0983 8.13818ZM74.4274 13.6982L73.9013 15.952C73.8829 16.0637 73.7813 15.9426 73.6798 15.9426H70.274C69.8864 17.2279 69.4618 17.4514 69.3603 17.6004C69.2034 17.8332 69.1849 17.917 69.711 15.9706C69.711 15.9613 69.711 15.9985 69.711 15.9892L70.2187 13.6702C70.5417 12.1056 71.5385 11.2674 72.8122 11.2674C74.0213 11.2674 74.732 12.1429 74.4274 13.6982Z" fill="white"/>
<path d="M87.1836 8.2594H82.6518C82.541 8.2594 82.4487 8.38047 82.4303 8.49223L79.5414 22.5086C79.5137 22.6576 79.6244 23.0022 79.7629 23.0022H82.3934C82.5041 23.0022 82.5964 22.7321 82.6149 22.6204L83.1964 19.9102C83.2148 19.7985 83.3163 19.7891 83.4179 19.7891H85.0331H85.4023C85.4946 19.7891 85.5776 19.6867 85.6145 19.7705L86.759 22.7321C86.796 22.8159 86.879 22.9929 86.9713 22.9929H89.6572C89.8233 22.9929 89.9341 22.6297 89.8695 22.4807L88.4296 18.7181C88.3835 18.6157 88.4296 18.448 88.5219 18.3828C90.1833 17.3677 91.3739 15.6448 91.6416 13.7821C92.1308 10.6156 89.8141 8.2594 87.1836 8.2594ZM88.5404 13.7076C88.2543 15.0767 86.9252 15.9521 85.6053 15.9521H84.4701C84.064 17.2373 83.6117 17.554 83.5102 17.7123C83.381 17.9079 83.7778 16.4364 84.0916 15.2722L84.8762 11.5842C84.8946 11.4725 84.9962 11.4538 85.0977 11.4538H86.6391C87.9774 11.4631 88.8357 12.3013 88.5404 13.7076Z" fill="white"/>
<path d="M102.588 8.0451C98.5266 8.0451 94.7424 11.3606 94.0686 15.4957C93.3948 19.6494 95.6838 22.909 99.7541 22.909C102.108 22.909 104.184 21.8193 105.717 20.1057C105.8 20.0126 105.79 19.8636 105.707 19.7797L104.867 18.9695C104.775 18.8764 104.627 18.8857 104.544 18.9788C103.354 20.2454 101.72 21.1488 99.9203 21.1488C96.8191 21.1488 95.1762 18.5597 95.8038 15.4864C96.4222 12.3851 99.3573 9.76805 102.274 9.76805C104.074 9.76805 105.227 10.6621 105.883 11.5562C105.957 11.6493 106.086 11.6773 106.187 11.6121L107.359 10.8856C107.47 10.8111 107.507 10.6621 107.424 10.5504C106.418 9.11612 104.6 8.0451 102.588 8.0451Z" fill="white"/>
<path d="M121.979 8.2594H120.761C120.65 8.2594 120.558 8.37116 120.54 8.48292L118.657 17.4236C118.149 19.7333 115.759 21.1302 114.014 21.1302C111.753 21.1302 110.553 19.7612 111.042 17.4422L112.897 8.58536C112.925 8.43635 112.814 8.26871 112.676 8.26871H111.458C111.347 8.26871 111.254 8.38047 111.236 8.49223L109.316 17.6005C108.624 20.916 111.107 22.8904 113.719 22.8904C116.294 22.8904 119.589 21.1396 120.318 17.6192L122.219 8.59468C122.238 8.42704 122.127 8.2594 121.979 8.2594Z" fill="white"/>
<path d="M135.445 8.2594H125.385C125.274 8.2594 125.182 8.37116 125.163 8.48292L124.905 9.79608C124.877 9.94509 124.979 10.1872 125.126 10.1872H128.975C129.123 10.1872 129.234 10.2338 129.197 10.3828L126.677 22.5831C126.649 22.7321 126.76 23.0115 126.899 23.0115H128.117C128.228 23.0115 128.32 22.7414 128.338 22.6297L130.895 10.3828C130.913 10.2711 131.015 10.1872 131.117 10.1872H135.168C135.279 10.1872 135.371 10.0196 135.39 9.91715L135.648 8.63193C135.704 8.4736 135.593 8.2594 135.445 8.2594Z" fill="white"/>
<path d="M20.2023 15.5238C20.2657 15.474 20.2586 15.3673 20.2727 15.2891C20.3009 15.1611 20.3926 15.0686 20.4983 14.9833C20.597 14.9051 20.7097 14.8268 20.7732 14.7202C20.8366 14.6135 20.8507 14.457 20.7591 14.3646C20.7097 14.3219 20.6463 14.3006 20.5758 14.2864C20.2375 14.1939 19.9062 14.1157 19.582 13.9734C19.2649 13.8312 18.9406 13.6676 18.5812 13.6463C17.968 13.6107 17.3901 14.0019 17.0518 14.521C17.4042 14.4855 17.7284 14.3006 18.0667 14.201C18.405 14.1014 18.8279 14.1014 19.0605 14.3646C18.4332 14.4286 17.9539 14.77 17.3971 15.0046C17.4535 15.0331 17.5169 15.0473 17.5804 15.0686C17.7848 15.1255 17.968 15.1113 18.1583 15.026C18.2993 14.9549 18.4332 14.8695 18.5812 14.8268C18.701 14.7913 18.9406 14.7771 19.0111 14.9122V14.9193C18.5882 15.0544 18.1936 15.2678 17.8552 15.5523C18.0033 15.6234 18.1654 15.6589 18.3345 15.6589C18.405 15.6589 18.4825 15.6447 18.5319 15.5949C18.5953 15.538 18.5812 15.474 18.553 15.41C18.6235 15.3958 18.694 15.3745 18.7644 15.3602C18.7785 15.3602 18.7926 15.3531 18.8067 15.3602C18.8208 15.3673 18.8349 15.3816 18.842 15.4029C18.8913 15.5167 18.9688 15.6163 19.0534 15.7087C18.7715 15.7656 18.4966 15.8296 18.2217 15.9078C18.1865 15.915 18.1513 15.9363 18.1583 15.9718C18.1583 15.9932 18.1865 16.0074 18.2006 16.0145C18.6164 16.2208 19.1098 16.2492 19.5468 16.0999C19.6314 16.0714 19.7089 16.0359 19.7653 15.9647C19.8217 15.9007 19.8428 15.7941 19.7864 15.7229C19.7371 15.6518 19.6243 15.6163 19.6243 15.538L19.9979 15.5167C20.0613 15.5523 20.1459 15.5665 20.2023 15.5238Z" fill="#242424"/>
<path d="M12.6823 15.8298C13.0982 15.6448 13.077 14.955 12.8515 14.635C12.6964 14.4145 12.344 14.2438 12.0762 14.3505C11.907 14.4145 11.5969 14.7488 11.9423 14.8056C11.9775 14.8128 12.0128 14.8128 12.048 14.8128C12.1608 14.8128 12.2453 14.8625 12.3158 14.9408C12.4145 15.0403 12.4427 15.1399 12.4004 15.2181C12.3581 15.3035 12.2735 15.3177 12.1255 15.2893C12.048 15.275 11.9705 15.2466 11.9 15.2466C11.7802 15.2395 11.6956 15.2821 11.6604 15.403C11.6533 15.4244 11.6463 15.4386 11.6463 15.4599C11.6322 15.5239 11.6251 15.5951 11.6322 15.6591C11.6392 15.7444 11.6744 15.8298 11.7097 15.908C11.9211 16.292 12.2242 16.5694 12.633 16.733C12.6894 16.7543 12.7458 16.7685 12.8021 16.7756C12.8656 16.7827 12.929 16.7685 12.9642 16.7045L12.8162 16.3774C12.7528 16.3205 12.6823 16.2778 12.6259 16.2209C12.5977 16.1925 12.5696 16.164 12.5555 16.1356C12.4991 16.0147 12.5061 15.908 12.6823 15.8298Z" fill="#242424"/>
<path d="M21.3582 15.225C21.774 14.969 21.9502 14.4356 21.922 13.9449C21.9009 13.6817 21.8374 13.4328 21.7458 13.1839C21.6612 12.9492 21.5485 12.7216 21.4428 12.4941C21.4357 12.4727 21.4216 12.4514 21.4075 12.43C21.3934 12.4158 21.3793 12.4087 21.3652 12.4016C21.3018 12.3803 21.2102 12.4158 21.1538 12.4372C21.1467 12.4372 21.0269 12.4869 21.034 12.5012C21.1538 12.8639 21.2736 13.2195 21.3864 13.5822C21.4709 13.8382 21.5555 14.1155 21.4639 14.3645C21.3934 14.5494 21.2454 14.6916 21.1467 14.8623C20.8648 15.3459 21.0622 15.9646 21.337 16.4482C21.6119 16.9318 21.9714 17.4083 22.0137 17.963C22.0207 18.0626 22.0137 18.1764 21.9361 18.2404C21.8727 18.2902 21.7881 18.2973 21.7035 18.2973C21.3159 18.3044 20.9353 18.3044 20.5476 18.3115C20.449 18.3115 20.3362 18.3115 20.2657 18.2404C20.16 18.1337 20.0754 17.9488 20.167 17.835C20.2587 17.7141 20.3855 17.6146 20.4208 17.4723C20.3151 17.6288 20.1389 17.7212 19.9979 17.8493C19.8569 17.9773 19.8851 18.1693 19.9486 18.3471C20.019 18.5604 20.2798 18.6173 20.4983 18.6671C20.7168 18.7169 20.9705 18.8662 20.9423 19.0867C19.7019 19.1152 18.5248 19.9615 18.0949 21.1349C18.0738 20.7722 18.1654 20.1179 18.2147 19.7552C18.2218 19.6912 18.2077 19.6414 18.1865 19.5916L16.5866 18.5178C15.7549 17.9844 14.9796 17.3514 14.2889 16.6331C14.3524 17.4581 14.0916 18.2688 13.9013 19.0725C13.711 19.8761 13.5982 20.758 13.9436 21.5047C14.2185 22.1021 14.7471 22.5288 15.2827 22.8986C16.0439 23.4178 16.8544 23.8587 17.7073 24.2143C18.4896 24.5344 19.3354 24.769 20.2023 24.7833C21.1256 24.8046 21.5696 24.0934 21.5696 24.0934C21.7176 23.6027 21.7388 23.0693 21.6401 22.5715C21.619 22.4506 21.1185 21.1349 21.041 21.2131C21.3088 20.9713 21.3934 20.5517 21.2454 20.2246C21.6401 19.8619 21.8093 19.2787 21.6824 18.7525C21.9714 18.6244 22.2956 18.4538 22.3802 18.1479C22.4577 17.8635 22.2885 17.5719 22.1405 17.3159C21.774 16.6687 21.5062 15.9575 21.3582 15.225Z" fill="#242424"/>
<path d="M25.3618 11.0861C24.939 11.5911 24.2553 11.8613 23.6069 11.7689C24.0368 11.7902 24.4667 11.5697 24.7134 11.2142C24.3187 11.52 23.7549 11.8187 23.3531 11.52C23.2333 11.4275 23.1487 11.2995 23.0642 11.1715C22.7047 10.5954 22.3382 10.0123 21.9787 9.42909C22.6836 9.54288 23.2686 10.1901 23.3108 10.9083C23.3108 10.8799 23.3108 10.8515 23.3108 10.823C23.3038 10.3465 23.1276 9.87714 22.8175 9.51443C23.2826 10.0407 23.5716 10.7377 23.5998 11.4488C23.6562 10.6097 23.621 9.7349 23.2333 8.98816C23.0148 8.61123 22.6765 8.28409 22.2818 8.1063C21.9365 7.94984 21.5136 7.9285 21.2457 7.6298C21.133 7.50179 21.0625 7.33822 20.9779 7.18887C20.6537 6.63415 20.0758 6.27856 19.4767 6.05809C18.8776 5.83763 18.2433 5.71673 17.6442 5.50337C17.6442 5.50337 14.4091 3.81076 10.4551 6.1221C9.32037 6.79772 8.91862 8.36943 8.69308 9.68512C8.64375 9.95537 8.60851 10.2256 8.53098 10.4888C8.45345 10.7377 8.33363 10.9652 8.24201 11.207C7.69225 12.6721 8.23496 14.3007 8.79881 15.7657C9.36265 17.2308 9.95469 18.8238 9.49657 20.3244C10.0322 19.727 9.97584 18.8238 9.93355 18.0202C9.89126 17.2165 9.97584 16.2707 10.6384 15.8297C10.7088 16.5267 11.611 16.7969 11.9282 17.4157C11.9916 17.5366 12.0268 17.6646 12.1114 17.7713C12.344 18.0486 12.781 17.9633 13.0559 17.7144C12.9078 17.7997 12.6823 17.7855 12.5343 17.6788C12.3158 17.5366 12.196 17.2876 12.048 17.0743C11.6603 16.5409 11.0119 16.1995 10.9062 15.467C10.8639 15.1897 10.9344 14.9052 11.0542 14.6563C11.6321 13.4686 12.8867 13.7175 13.4294 14.4571C13.4365 14.4714 13.4435 14.4785 13.4506 14.4927C13.4787 14.5283 13.4999 14.5638 13.521 14.6065C13.5774 14.7061 13.6197 14.8198 13.6479 14.9336C13.6549 14.955 13.662 14.9834 13.662 15.0048C13.669 15.0332 13.6761 15.0688 13.6761 15.1043C13.6761 15.0972 13.6761 15.0972 13.6761 15.0901C13.7184 15.3675 13.7113 15.6235 13.7113 15.6235L13.8875 15.5737C13.9439 15.5595 14.0003 15.5453 14.0567 15.531L14.1131 15.5168C14.1836 15.4955 14.247 15.4812 14.3175 15.4599C14.3175 14.8056 14.7685 14.2225 15.3183 13.8811C16.0513 13.4259 16.9887 13.2624 17.7922 12.9779L18.7578 11.4204C18.9058 11.1786 18.7507 10.8515 18.4688 10.823C17.4186 10.7234 16.3544 10.7306 15.3253 10.4603C15.0787 10.3963 15.2196 10.0194 15.4663 10.0834C16.6151 10.3821 17.8063 10.3394 18.9692 10.4816C19.8009 10.7021 20.5198 11.2995 21.2457 11.7404C21.9576 12.1743 22.9655 12.7716 23.8183 12.4943C23.8535 12.4801 23.8817 12.4587 23.9029 12.4374C24.1919 12.3947 24.4667 12.2667 24.6429 12.0249C24.3187 12.2311 23.8817 12.2311 23.5575 12.0178C24.2764 12.1031 25.0094 11.7191 25.3618 11.0861Z" fill="#242424"/>
</svg>
