<svg width="104" height="104" viewBox="0 0 104 104" fill="none" xmlns="http://www.w3.org/2000/svg">
<g clip-path="url(#clip0_934_41488)">
<path d="M29.328 66.4958H21.6942C13.7682 66.4956 7.32002 60.0474 7.32002 52.1215V41.7725H3.04688C1.36419 41.7725 0 40.4083 0 38.7256C0 37.0429 1.36419 35.6787 3.04688 35.6787H10.3669C12.0496 35.6787 13.4138 37.0429 13.4138 38.7256V52.1217C13.4138 56.6873 17.1285 60.4021 21.6944 60.4023H29.3282C31.0109 60.4023 32.3751 61.7665 32.3751 63.4492C32.3749 65.1316 31.0109 66.4958 29.328 66.4958Z" fill="#674E55"/>
<path d="M82.3057 66.4958H74.6719C72.9892 66.4958 71.625 65.1316 71.625 63.4489C71.625 61.7663 72.9892 60.4021 74.6719 60.4021H82.3057C86.8716 60.4021 90.5861 56.6875 90.5861 52.1215V38.7256C90.5861 37.0429 91.9503 35.6787 93.633 35.6787H100.953C102.636 35.6787 104 37.0429 104 38.7256C104 40.4083 102.636 41.7725 100.953 41.7725H96.6799V52.1217C96.6799 60.0476 90.2317 66.4958 82.3057 66.4958Z" fill="#543F46"/>
<path d="M65.9808 91.1179H58.4414V73.5825H45.5592V91.1179H38.0198C35.1312 91.1179 32.7896 93.4595 32.7896 96.3482V104H71.211V96.3482C71.211 93.4595 68.8694 91.1179 65.9808 91.1179Z" fill="#674E55"/>
<path d="M65.9807 91.1179H58.4413V73.5825H51.9785V104H71.211V96.3482C71.211 93.4595 68.8694 91.1179 65.9807 91.1179Z" fill="#543F46"/>
<path d="M80.7231 70.932H23.2773V27.5455C23.2773 19.184 30.0556 12.4058 38.4171 12.4058H65.5836C73.945 12.4058 80.7233 19.184 80.7233 27.5455V70.932H80.7231Z" fill="#D86EAF"/>
<path d="M65.5836 12.4058H51.9785V70.9322H80.7233V27.5455C80.7233 19.184 73.9451 12.4058 65.5836 12.4058Z" fill="#A82AC5"/>
<path d="M81.8704 77.1096H22.1298C18.5544 77.1096 15.6558 74.2112 15.6558 70.6356C15.6558 67.0602 18.5542 64.1616 22.1298 64.1616H81.8702C85.4456 64.1616 88.3442 67.06 88.3442 70.6356C88.3442 74.2112 85.4458 77.1096 81.8704 77.1096Z" fill="#E9A0C0"/>
<path d="M81.8704 64.1616H51.9785V77.1094H81.8706C85.446 77.1094 88.3444 74.211 88.3444 70.6356C88.3444 67.06 85.446 64.1616 81.8704 64.1616Z" fill="#D86EAF"/>
<path d="M59.2669 20.6278H44.7329C43.0502 20.6278 41.686 19.2636 41.686 17.5809V3.04688C41.686 1.36419 43.0502 0 44.7329 0H59.2669C60.9496 0 62.3138 1.36419 62.3138 3.04688V17.5809C62.3138 19.2636 60.9496 20.6278 59.2669 20.6278Z" fill="#E9A0C0"/>
<path d="M59.2668 0H51.978V20.6278H59.2668C60.9494 20.6278 62.3136 19.2636 62.3136 17.5809V3.04688C62.3136 1.36419 60.9494 0 59.2668 0Z" fill="#D86EAF"/>
</g>
<defs>
<clipPath id="clip0_934_41488">
<rect width="104" height="104" fill="white"/>
</clipPath>
</defs>
</svg>
