<svg width="124" height="106" viewBox="0 0 124 106" fill="none" xmlns="http://www.w3.org/2000/svg">
<g clip-path="url(#clip0_934_41561)">
<path d="M62 85.1973L32.1704 90.1191V102.424C32.1704 104.123 33.7731 105.5 35.75 105.5H62L67.7272 95.3486L62 85.1973Z" fill="#FFDC75"/>
<path d="M62 105.5H88.25C90.2269 105.5 91.8295 104.123 91.8295 102.424V90.1191L62 85.1973V105.5Z" fill="#FFC649"/>
<path d="M61.9998 0.5H47.6816C45.7047 0.5 44.1021 1.8773 44.1021 3.57617V25.7246H61.9998L67.7271 13.0098L61.9998 0.5Z" fill="#FFC649"/>
<path d="M62 25.7246H79.8977V3.57617C79.8977 1.8773 78.295 0.5 76.3182 0.5H62V25.7246Z" fill="#FFA951"/>
<path d="M62 19.2788H44.1022L38.531 25.0241C34.4293 29.254 32.1704 34.6158 32.1704 40.1221V90.1192H62L67.7272 54.6991L62 19.2788Z" fill="#395F79"/>
<path d="M62 90.1192H91.8295V40.1221C91.8295 34.6158 89.5706 29.254 85.4689 25.0241L79.8977 19.2788H62V90.1192Z" fill="#284053"/>
<path d="M61.9999 33.7227C56.0786 33.7227 51.2612 37.8626 51.2612 42.9512C51.2612 48.0398 56.0786 52.1797 61.9999 52.1797L65.818 42.9512L61.9999 33.7227Z" fill="#FFDC75"/>
<path d="M62 58.332L65.8182 61.4082L62 64.4844H52.4545C50.4777 64.4844 48.875 63.1071 48.875 61.4082C48.875 59.7093 50.4777 58.332 52.4545 58.332H62Z" fill="#FFC649"/>
<path d="M61.9997 70.6367H57.227C55.2501 70.6367 53.6475 72.014 53.6475 73.7129C53.6475 75.4118 55.2501 76.7891 57.227 76.7891H61.9997L63.9088 73.7129L61.9997 70.6367Z" fill="#FFC649"/>
<path d="M70.3523 73.7129C70.3523 72.014 68.7496 70.6367 66.7727 70.6367H62V76.7891H66.7727C68.7496 76.7891 70.3523 75.4118 70.3523 73.7129Z" fill="#FFA951"/>
<path d="M62 52.1797C67.9213 52.1797 72.7386 48.0398 72.7386 42.9512C72.7386 37.8626 67.9213 33.7227 62 33.7227V52.1797Z" fill="#FFC649"/>
<path d="M75.125 61.4082C75.125 59.7093 73.5223 58.332 71.5455 58.332H62V64.4844H71.5455C73.5223 64.4844 75.125 63.1071 75.125 61.4082Z" fill="#FFA951"/>
</g>
<defs>
<clipPath id="clip0_934_41561">
<rect width="122.182" height="105" fill="white" transform="translate(0.90918 0.5)"/>
</clipPath>
</defs>
</svg>
