<svg width="114" height="107" viewBox="0 0 114 107" fill="none" xmlns="http://www.w3.org/2000/svg">
<path d="M53.6602 86.7285H60.3398V103.865H53.6602V86.7285Z" fill="#FFC178"/>
<path d="M57 86.7285H60.3398V103.865H57V86.7285Z" fill="#FF936B"/>
<path d="M57 89.8633C26.9207 89.8633 2.44922 66.8946 2.44922 38.6621C2.44922 36.9309 3.94458 35.5273 5.78906 35.5273C7.63355 35.5273 9.12891 36.9309 9.12891 38.6621C9.12891 63.4376 30.6039 83.5938 57 83.5938C83.3961 83.5938 104.871 63.4376 104.871 38.6621C104.871 36.9309 106.366 35.5273 108.211 35.5273C110.055 35.5273 111.551 36.9309 111.551 38.6621C111.551 66.8946 87.0793 89.8633 57 89.8633Z" fill="#FFE278"/>
<path d="M108.211 35.5273C106.366 35.5273 104.871 36.9309 104.871 38.6621C104.871 63.4376 83.3961 83.5938 57 83.5938V89.8633C87.0793 89.8633 111.551 66.8946 111.551 38.6621C111.551 36.9309 110.055 35.5273 108.211 35.5273Z" fill="#FFC178"/>
<path d="M57 77.3242C79.7494 77.3242 98.1914 60.0146 98.1914 38.6621C98.1914 17.3096 79.7494 0 57 0C34.2506 0 15.8086 17.3096 15.8086 38.6621C15.8086 60.0146 34.2506 77.3242 57 77.3242Z" fill="#FFE278"/>
<path d="M57 0V77.3242C79.7129 77.3242 98.1914 59.9806 98.1914 38.6621C98.1914 17.3436 79.7129 0 57 0Z" fill="#FFC178"/>
<path d="M57 71.0547C76.0603 71.0547 91.5117 56.552 91.5117 38.6621C91.5117 20.7722 76.0603 6.26953 57 6.26953C37.9397 6.26953 22.4883 20.7722 22.4883 38.6621C22.4883 56.552 37.9397 71.0547 57 71.0547Z" fill="#BCFBFF"/>
<path d="M57 6.26953V71.0547C76.0298 71.0547 91.5117 56.5234 91.5117 38.6621C91.5117 20.8008 76.0298 6.26953 57 6.26953Z" fill="#ACCEFF"/>
<path d="M104.871 44.9316C101.188 44.9316 98.1914 42.1191 98.1914 38.6621C98.1914 35.2051 101.188 32.3926 104.871 32.3926C108.554 32.3926 111.551 35.2051 111.551 38.6621C111.551 42.1191 108.554 44.9316 104.871 44.9316Z" fill="#FF936B"/>
<path d="M9.12891 44.9316C5.44573 44.9316 2.44922 42.1191 2.44922 38.6621C2.44922 35.2051 5.44573 32.3926 9.12891 32.3926C12.8121 32.3926 15.8086 35.2051 15.8086 38.6621C15.8086 42.1191 12.8121 44.9316 9.12891 44.9316Z" fill="#FFC178"/>
<path d="M83.7188 107H30.2812C28.4368 107 26.9414 105.596 26.9414 103.865C26.9414 102.134 28.4368 100.73 30.2812 100.73H83.7188C85.5632 100.73 87.0586 102.134 87.0586 103.865C87.0586 105.596 85.5632 107 83.7188 107Z" fill="#1C78BE"/>
<path d="M83.7188 100.73H57V107H83.7188C85.5632 107 87.0586 105.596 87.0586 103.865C87.0586 102.134 85.5632 100.73 83.7188 100.73Z" fill="#0A617D"/>
<path d="M37.32 48.2674C36.0157 47.0432 36.0157 45.0585 37.32 43.8342L62.5107 20.1901C63.815 18.9659 65.9296 18.9659 67.2339 20.1901C68.5382 21.4144 68.5382 23.3991 67.2339 24.6233L42.0432 48.2674C40.7389 49.4916 38.6244 49.4916 37.32 48.2674Z" fill="#ACCEFF"/>
<path d="M67.2337 20.1901C65.9294 18.9659 63.8148 18.9659 62.5105 20.1901L57 25.3623V34.2287L67.2337 24.6233C68.538 23.3993 68.538 21.4144 67.2337 20.1901Z" fill="#989DEC"/>
<path d="M50.4558 53.6712C49.1515 52.447 49.1515 50.4622 50.4558 49.238L68.2683 32.5192C69.5726 31.295 71.6872 31.295 72.9915 32.5192C74.2958 33.7435 74.2958 35.7282 72.9915 36.9524L55.179 53.6712C53.8747 54.8954 51.7601 54.8954 50.4558 53.6712Z" fill="#ACCEFF"/>
<path d="M72.9912 32.5192C71.6869 31.295 69.5723 31.295 68.268 32.5192L57 43.0953V51.9617L72.9912 36.9524C74.2955 35.7284 74.2955 33.7435 72.9912 32.5192Z" fill="#989DEC"/>
</svg>
