<svg width="44" height="16" viewBox="0 0 44 16" fill="none" xmlns="http://www.w3.org/2000/svg">
<path d="M11.7842 13.4511H3.99652C2.80322 13.4511 1.82547 12.4748 1.82547 11.2834V3.50758C1.82547 2.31611 2.80322 1.33984 3.99652 1.33984H11.7842C12.9775 1.33984 13.9552 2.31611 13.9552 3.50758V11.2834C13.9552 12.4748 12.9806 13.4511 11.7842 13.4511Z" fill="white"/>
<path d="M8.35785 4.63477H6.47107V5.52058C7.12082 5.60167 7.86741 5.86367 8.5609 6.25355C8.86078 5.951 9.05134 5.62662 9.05134 5.32719C9.05446 4.94667 8.74208 4.63477 8.35785 4.63477Z" fill="#F8ADBF"/>
<path d="M9.98552 9.11818C9.98552 8.50061 9.41074 7.82066 8.6454 7.28418C7.98316 7.77699 7.16472 8.12632 6.46811 8.22925V10.1163H8.98277C9.53881 10.1163 9.98552 9.66713 9.98552 9.11818Z" fill="#F8ADBF"/>
<path d="M6.47107 6.35645V7.39197C6.91777 7.30464 7.41446 7.09254 7.85492 6.81495C7.39259 6.58726 6.9084 6.42195 6.47107 6.35645Z" fill="#F8ADBF"/>
<path d="M9.27354 6.71652C9.64528 6.29857 9.88269 5.82447 9.88269 5.33167C9.88269 4.49264 9.19857 3.80957 8.35827 3.80957H5.64368V5.49698V8.26357V10.9428H8.98615C9.99514 10.9428 10.8136 10.1256 10.8136 9.11819C10.8136 8.05147 9.92642 7.19997 9.27354 6.71652ZM6.47149 4.63612H8.35827C8.7425 4.63612 9.05488 4.94802 9.05488 5.33167C9.05488 5.63109 8.8612 5.95548 8.56444 6.25802C7.86783 5.86814 7.12436 5.60614 6.47461 5.52505V4.63612H6.47149ZM6.47149 6.35783C6.90882 6.42645 7.39301 6.58864 7.85533 6.81633C7.41488 7.09393 6.91819 7.30602 6.47149 7.39336V6.35783ZM8.98615 10.1163H6.47149V8.22926C7.1681 8.12321 7.98653 7.777 8.64878 7.28419C9.41412 7.81755 9.9889 8.4975 9.9889 9.11819C9.98577 9.66714 9.53907 10.1163 8.98615 10.1163Z" fill="#232323"/>
<path d="M14.8972 2.55371C15.0066 2.55683 15.1534 2.56307 15.3377 2.56619C15.522 2.56931 15.7063 2.57243 15.8906 2.57243C16.0999 2.57243 16.3029 2.56931 16.4997 2.56619C16.6965 2.56307 16.8371 2.55995 16.9183 2.55995C17.4587 2.55995 17.8648 2.65664 18.1335 2.8469C18.4021 3.03716 18.5365 3.28357 18.5365 3.58612C18.5365 3.73895 18.4896 3.89178 18.399 4.05085C18.3084 4.20681 18.1647 4.34716 17.9742 4.46881C17.7836 4.59045 17.5337 4.6809 17.2276 4.73704V4.74952C17.6368 4.78071 17.9617 4.85557 18.2022 4.97097C18.4427 5.0895 18.6146 5.22985 18.7208 5.39516C18.827 5.56047 18.877 5.73202 18.877 5.91293C18.877 6.32152 18.7176 6.63654 18.3959 6.85488C18.0741 7.07321 17.6337 7.18238 17.0714 7.18238C16.9652 7.18238 16.8152 7.17926 16.6153 7.17302C16.4154 7.16678 16.1811 7.16366 15.9062 7.16366C15.7157 7.16366 15.5251 7.16366 15.3408 7.16678C15.1565 7.1699 15.0066 7.17302 14.9003 7.18238V7.05138C15.0409 7.04202 15.144 7.02642 15.2158 6.99835C15.2846 6.9734 15.3314 6.92038 15.3564 6.8424C15.3814 6.76443 15.3939 6.6459 15.3939 6.48995V3.24614C15.3939 3.08395 15.3814 2.96543 15.3564 2.89057C15.3314 2.81571 15.2846 2.76269 15.2127 2.73462C15.1409 2.70654 15.0378 2.69095 14.9003 2.68471V2.55371H14.8972ZM16.834 2.68471C16.6653 2.68471 16.5528 2.72214 16.5029 2.797C16.4529 2.87185 16.4279 3.02157 16.4279 3.24926V6.48995C16.4279 6.71764 16.456 6.86424 16.5122 6.92974C16.5685 6.99835 16.6903 7.02954 16.8777 7.02954C17.1932 7.02954 17.4213 6.92973 17.5681 6.73323C17.7149 6.53362 17.7867 6.2529 17.7867 5.88797C17.7867 5.55112 17.7024 5.29223 17.5337 5.11133C17.365 4.92731 17.087 4.83685 16.6997 4.83685H16.1436V4.72457H16.7059C16.9121 4.72457 17.0683 4.67466 17.1776 4.57797C17.2869 4.48128 17.3619 4.35028 17.4056 4.18497C17.4494 4.02278 17.4712 3.845 17.4712 3.65785C17.4712 3.33659 17.4213 3.09331 17.3213 2.928C17.2245 2.76893 17.062 2.68471 16.834 2.68471Z" fill="white"/>
<path d="M20.9199 3.71191C21.2385 3.71191 21.5165 3.77118 21.7571 3.8897C21.9976 4.00822 22.185 4.19537 22.3194 4.45737C22.4537 4.71937 22.5224 5.06558 22.5224 5.49601C22.5224 5.92644 22.4537 6.27265 22.3194 6.53153C22.185 6.79041 21.9976 6.98068 21.7571 7.09608C21.5165 7.2146 21.2385 7.27387 20.9199 7.27387C20.6106 7.27387 20.3326 7.2146 20.0921 7.09608C19.8484 6.97756 19.661 6.79041 19.5236 6.53153C19.3861 6.27265 19.3174 5.92644 19.3174 5.49601C19.3174 5.06558 19.3861 4.71937 19.5236 4.45737C19.661 4.19537 19.8516 4.0051 20.0921 3.8897C20.3326 3.77118 20.6106 3.71191 20.9199 3.71191ZM20.9199 3.84291C20.745 3.84291 20.5981 3.97391 20.4826 4.2328C20.3639 4.49168 20.3045 4.91275 20.3045 5.49601C20.3045 6.07927 20.3639 6.50034 20.4826 6.7561C20.6013 7.01187 20.7481 7.14287 20.9199 7.14287C21.098 7.14287 21.2448 7.01499 21.3604 6.7561C21.4759 6.50034 21.5353 6.07927 21.5353 5.49601C21.5353 4.91275 21.4759 4.49168 21.3604 4.2328C21.2448 3.97391 21.098 3.84291 20.9199 3.84291Z" fill="white"/>
<path d="M24.6184 3.71191C24.937 3.71191 25.215 3.77118 25.4556 3.8897C25.6961 4.00822 25.8835 4.19537 26.0179 4.45737C26.1522 4.71937 26.2209 5.06558 26.2209 5.49601C26.2209 5.92644 26.1522 6.27265 26.0179 6.53153C25.8835 6.79041 25.6961 6.98068 25.4556 7.09608C25.215 7.2146 24.937 7.27387 24.6184 7.27387C24.3091 7.27387 24.0311 7.2146 23.7906 7.09608C23.5469 6.97756 23.3595 6.79041 23.222 6.53153C23.0846 6.27265 23.0159 5.92644 23.0159 5.49601C23.0159 5.06558 23.0846 4.71937 23.222 4.45737C23.3595 4.19537 23.55 4.0051 23.7906 3.8897C24.0311 3.77118 24.306 3.71191 24.6184 3.71191ZM24.6184 3.84291C24.4435 3.84291 24.2966 3.97391 24.1811 4.2328C24.0623 4.49168 24.003 4.91275 24.003 5.49601C24.003 6.07927 24.0623 6.50034 24.1811 6.7561C24.2998 7.01187 24.4466 7.14287 24.6184 7.14287C24.7964 7.14287 24.9433 7.01499 25.0588 6.7561C25.1744 6.50034 25.2338 6.07927 25.2338 5.49601C25.2338 4.91275 25.1744 4.49168 25.0588 4.2328C24.9433 3.97391 24.7964 3.84291 24.6184 3.84291Z" fill="white"/>
<path d="M27.8893 2.06445V6.5746C27.8893 6.75862 27.9174 6.88026 27.9768 6.94576C28.0361 7.01126 28.1361 7.04245 28.2798 7.04245V7.17969C28.1955 7.17657 28.0768 7.17033 27.9174 7.1641C27.7581 7.15786 27.5957 7.15474 27.4301 7.15474C27.2614 7.15474 27.0896 7.15786 26.9178 7.1641C26.746 7.17033 26.6148 7.17657 26.5273 7.17969V7.04245C26.6804 7.04245 26.7866 7.01126 26.8522 6.94576C26.9147 6.88026 26.9459 6.7555 26.9459 6.5746V2.85045C26.9459 2.65395 26.9178 2.51048 26.8585 2.41691C26.7991 2.32333 26.6898 2.27655 26.5273 2.27655V2.13619C26.6679 2.14867 26.8022 2.15491 26.9334 2.15491C27.1115 2.15491 27.2833 2.14867 27.4426 2.13307C27.6051 2.11748 27.755 2.09564 27.8893 2.06445ZM30.0229 3.80488V3.93588C29.8886 3.96083 29.7511 4.0201 29.6168 4.10431C29.4825 4.19164 29.345 4.30393 29.2044 4.43805L28.7015 4.96205L28.7671 4.83729L29.8854 6.7056C29.9323 6.78357 29.9823 6.85531 30.0354 6.91457C30.0885 6.97695 30.151 7.02062 30.2259 7.04557V7.18281C30.1603 7.17969 30.0635 7.17345 29.9323 7.16721C29.8011 7.16098 29.6699 7.15786 29.5387 7.15786C29.3763 7.15786 29.2169 7.16098 29.0545 7.16721C28.8921 7.17345 28.7734 7.17969 28.6953 7.18281V7.04557C28.7827 7.04557 28.8421 7.02374 28.8733 6.98319C28.9046 6.94264 28.8983 6.88962 28.8608 6.82412L28.2142 5.65448C28.1611 5.57026 28.1111 5.51724 28.0611 5.49541C28.0112 5.47045 27.9456 5.45798 27.8612 5.45174V5.32698C27.9518 5.31762 28.033 5.30202 28.0986 5.28019C28.1673 5.25836 28.2298 5.21781 28.286 5.15543L28.7827 4.67198C28.9296 4.53162 29.0045 4.40998 29.0045 4.30081C29.0045 4.19164 28.9577 4.10431 28.864 4.03881C28.7702 3.97331 28.6484 3.939 28.4953 3.93276V3.80176C28.6172 3.80488 28.7515 3.81112 28.8952 3.81424C29.0389 3.81736 29.1607 3.82048 29.2607 3.82048C29.3481 3.82048 29.4419 3.82048 29.5387 3.81736C29.6355 3.81424 29.7292 3.81424 29.8167 3.81112C29.9011 3.81112 29.9698 3.808 30.0229 3.80488Z" fill="white"/>
<path d="M33.2438 3.7334V6.57485C33.2438 6.75887 33.275 6.88052 33.3375 6.94602C33.3999 7.01152 33.5093 7.04271 33.6623 7.04271V7.17995C33.5843 7.17683 33.4624 7.17059 33.2969 7.16435C33.1313 7.15811 32.9626 7.15499 32.7939 7.15499C32.6252 7.15499 32.4503 7.15811 32.2754 7.16435C32.1004 7.17059 31.9692 7.17683 31.8818 7.17995V7.04271C32.0348 7.04271 32.141 7.01152 32.2066 6.94602C32.2691 6.88052 32.3004 6.75576 32.3004 6.57485V4.51628C32.3004 4.31978 32.2723 4.1763 32.2129 4.08273C32.1535 3.98916 32.0442 3.94237 31.8818 3.94237V3.80514C32.0223 3.81761 32.1567 3.82385 32.2879 3.82385C32.4722 3.82385 32.6409 3.81761 32.8002 3.80202C32.9595 3.78642 33.1094 3.76147 33.2438 3.7334Z" fill="white"/>
<path d="M32.731 2.11719C32.9153 2.11719 33.059 2.16085 33.1652 2.25131C33.2714 2.34176 33.3245 2.4634 33.3245 2.61935C33.3245 2.77531 33.2714 2.90007 33.1652 2.9874C33.059 3.07785 32.9122 3.12152 32.731 3.12152C32.5498 3.12152 32.403 3.07785 32.2968 2.9874C32.1906 2.89695 32.1375 2.77531 32.1375 2.61935C32.1375 2.4634 32.1906 2.33864 32.2968 2.25131C32.403 2.16085 32.5498 2.11719 32.731 2.11719Z" fill="white"/>
<path d="M36.3763 3.71191C36.5606 3.71191 36.7074 3.73375 36.8261 3.78053C36.9417 3.82732 37.0323 3.8897 37.0979 3.96768C37.1666 4.05189 37.2197 4.15794 37.251 4.28894C37.2822 4.41994 37.301 4.5946 37.301 4.81918V6.57832C37.301 6.76234 37.3322 6.88399 37.3947 6.94949C37.4572 7.01499 37.5665 7.04618 37.7196 7.04618V7.18341C37.6352 7.18029 37.5134 7.17406 37.3478 7.16782C37.1823 7.16158 37.0198 7.15846 36.8574 7.15846C36.6918 7.15846 36.5294 7.16158 36.3701 7.16782C36.2108 7.17406 36.0889 7.18029 36.0077 7.18341V7.04618C36.1389 7.04618 36.2295 7.01499 36.2826 6.94949C36.3357 6.88399 36.3607 6.75922 36.3607 6.57832V4.5447C36.3607 4.43553 36.3482 4.34196 36.3295 4.26087C36.3076 4.17977 36.267 4.11739 36.2108 4.0706C36.1545 4.02382 36.0702 4.00199 35.9546 4.00199C35.7703 4.00199 35.6172 4.07372 35.4923 4.2172C35.3673 4.36068 35.3048 4.54158 35.3048 4.75991V6.5752C35.3048 6.75922 35.333 6.88087 35.3861 6.94637C35.4392 7.01187 35.5298 7.04306 35.6578 7.04306V7.1803C35.5797 7.17718 35.4642 7.17094 35.3142 7.1647C35.1643 7.15846 35.0081 7.15534 34.8456 7.15534C34.6801 7.15534 34.5083 7.15846 34.3365 7.1647C34.1615 7.17094 34.0303 7.17718 33.9429 7.1803V7.04306C34.0959 7.04306 34.2021 7.01187 34.2677 6.94637C34.3302 6.88087 34.3615 6.7561 34.3615 6.5752V4.51663C34.3615 4.32013 34.3333 4.17665 34.274 4.08308C34.2146 3.98951 34.1053 3.94272 33.9429 3.94272V3.80549C34.0834 3.81796 34.2178 3.8242 34.349 3.8242C34.5333 3.8242 34.702 3.81796 34.8613 3.80237C35.0206 3.78677 35.1674 3.76494 35.3017 3.73375V4.32013C35.4111 4.09868 35.5579 3.9396 35.7453 3.84915C35.9359 3.7587 36.1452 3.71191 36.3763 3.71191Z" fill="white"/>
<path d="M14.8972 7.7627C15.0066 7.76581 15.1534 7.77205 15.3377 7.77517C15.522 7.77829 15.7063 7.78141 15.8906 7.78141C16.0999 7.78141 16.3029 7.77829 16.4997 7.77517C16.6965 7.77205 16.8371 7.76893 16.9183 7.76893C17.4587 7.76893 17.8648 7.86562 18.1335 8.05589C18.4021 8.24615 18.5365 8.49255 18.5365 8.7951C18.5365 8.94793 18.4896 9.10077 18.399 9.25984C18.3084 9.41579 18.1647 9.55615 17.9742 9.67779C17.7836 9.79943 17.5337 9.88989 17.2276 9.94603V9.95851C17.6368 9.9897 17.9617 10.0646 18.2022 10.18C18.4427 10.2985 18.6146 10.4388 18.7208 10.6041C18.827 10.7695 18.877 10.941 18.877 11.1219C18.877 11.5305 18.7176 11.8455 18.3959 12.0639C18.0741 12.2822 17.6337 12.3914 17.0714 12.3914C16.9652 12.3914 16.8152 12.3882 16.6153 12.382C16.4154 12.3758 16.1811 12.3726 15.9062 12.3726C15.7157 12.3726 15.5251 12.3726 15.3408 12.3758C15.1565 12.3789 15.0066 12.382 14.9003 12.3914V12.2604C15.0409 12.251 15.144 12.2354 15.2158 12.2073C15.2846 12.1824 15.3314 12.1294 15.3564 12.0514C15.3814 11.9734 15.3939 11.8549 15.3939 11.6989V8.45512C15.3939 8.29293 15.3814 8.17441 15.3564 8.09955C15.3314 8.0247 15.2846 7.97167 15.2127 7.9436C15.1409 7.91553 15.0378 7.89993 14.9003 7.8937V7.7627H14.8972ZM16.834 7.89058C16.6653 7.89058 16.5528 7.92801 16.5029 8.00286C16.4529 8.07772 16.4279 8.22743 16.4279 8.45512V11.6958C16.4279 11.9235 16.456 12.0701 16.5122 12.1356C16.5685 12.2042 16.6903 12.2354 16.8777 12.2354C17.1932 12.2354 17.4213 12.1356 17.5681 11.9391C17.7149 11.7395 17.7867 11.4588 17.7867 11.0938C17.7867 10.757 17.7024 10.4981 17.5337 10.3172C17.365 10.1332 17.087 10.0427 16.6997 10.0427H16.1436V9.93043H16.7059C16.9121 9.93043 17.0683 9.88053 17.1776 9.78384C17.2869 9.68715 17.3619 9.55615 17.4056 9.39084C17.4494 9.22865 17.4712 9.05086 17.4712 8.86372C17.4712 8.54246 17.4213 8.29917 17.3213 8.13386C17.2245 7.97479 17.062 7.89058 16.834 7.89058Z" fill="white"/>
<path d="M20.9203 8.91602C21.3046 8.91602 21.6045 9.0283 21.8231 9.25599C22.0418 9.48368 22.1511 9.85173 22.1511 10.3664H19.9988L19.9863 10.2416H21.3264C21.3296 10.0295 21.3171 9.8299 21.2858 9.64899C21.2546 9.46809 21.2077 9.32461 21.1421 9.21544C21.0765 9.10628 20.9891 9.05325 20.8797 9.05325C20.7267 9.05325 20.5986 9.14994 20.4892 9.34021C20.383 9.53047 20.3174 9.84861 20.2956 10.2946L20.3143 10.3352C20.3112 10.3882 20.3081 10.4412 20.3049 10.4974C20.3018 10.5535 20.3018 10.6128 20.3018 10.6752C20.3018 10.9746 20.3456 11.221 20.4299 11.4081C20.5142 11.5953 20.6236 11.7325 20.7548 11.8167C20.886 11.9009 21.0172 11.9446 21.1546 11.9446C21.2858 11.9446 21.4295 11.9134 21.5826 11.8479C21.7388 11.7824 21.8825 11.6421 22.0168 11.4237L22.1355 11.4643C22.0824 11.6296 22.0012 11.7918 21.8856 11.9477C21.7731 12.1037 21.6294 12.2316 21.4545 12.3345C21.2796 12.4343 21.0703 12.4842 20.8266 12.4842C20.5299 12.4842 20.2675 12.4218 20.0425 12.2939C19.8145 12.1692 19.6365 11.9758 19.5084 11.72C19.3803 11.4643 19.3147 11.1368 19.3147 10.7407C19.3147 10.3352 19.3834 9.99833 19.5209 9.72697C19.6583 9.45561 19.8489 9.25599 20.0894 9.12187C20.3331 8.98463 20.6111 8.91602 20.9203 8.91602Z" fill="white"/>
<path d="M23.3937 12.4359C23.1 12.4359 22.8907 12.361 22.7595 12.2082C22.6283 12.0554 22.5627 11.8713 22.5627 11.653C22.5627 11.4659 22.6065 11.313 22.6908 11.1945C22.7752 11.076 22.8845 10.9793 23.0219 10.9044C23.1563 10.8296 23.3 10.7641 23.4499 10.7142C23.5998 10.6643 23.7435 10.6144 23.881 10.5644C24.0184 10.5145 24.1309 10.4553 24.2152 10.3898C24.2996 10.3243 24.3433 10.2432 24.3433 10.1403V9.63185C24.3433 9.51957 24.3246 9.41664 24.2871 9.3293C24.2496 9.23885 24.1934 9.17023 24.1184 9.12345C24.0434 9.07666 23.9435 9.05171 23.8216 9.05171C23.7342 9.05171 23.6467 9.06419 23.5592 9.08914C23.4718 9.11409 23.3999 9.15464 23.3437 9.21078C23.4655 9.25445 23.5592 9.31995 23.628 9.4104C23.6967 9.50085 23.7279 9.60066 23.7279 9.71295C23.7279 9.86266 23.6779 9.97807 23.5749 10.0654C23.4718 10.1527 23.3499 10.1964 23.2125 10.1964C23.0563 10.1964 22.9376 10.1465 22.8564 10.0498C22.7752 9.95311 22.7346 9.83459 22.7346 9.69423C22.7346 9.56947 22.7658 9.46342 22.8283 9.37921C22.8907 9.295 22.9813 9.21702 23.0938 9.14528C23.2156 9.07666 23.3624 9.02052 23.5342 8.98309C23.7061 8.94254 23.8935 8.92383 24.0934 8.92383C24.2933 8.92383 24.4745 8.94566 24.637 8.98621C24.7994 9.02676 24.9337 9.10161 25.043 9.21078C25.143 9.31059 25.2086 9.43535 25.2398 9.57883C25.2711 9.72542 25.2867 9.90945 25.2867 10.1309V11.9088C25.2867 12.0148 25.2961 12.0865 25.3179 12.1302C25.3398 12.1739 25.3773 12.1957 25.4304 12.1957C25.4741 12.1957 25.5147 12.1864 25.5554 12.1645C25.596 12.1427 25.6303 12.1177 25.6678 12.0865L25.7334 12.1988C25.6428 12.2768 25.5366 12.3361 25.4148 12.3797C25.2961 12.4203 25.1618 12.4421 25.0118 12.4421C24.7494 12.4421 24.5776 12.3891 24.4901 12.283C24.4058 12.177 24.3589 12.0522 24.3558 11.915C24.2465 12.0928 24.1122 12.2269 23.9528 12.3142C23.7935 12.3922 23.6061 12.4359 23.3937 12.4359ZM23.8966 12.0148C23.981 12.0148 24.0559 11.9961 24.1278 11.9555C24.1996 11.915 24.2715 11.8464 24.3402 11.7466V10.4085C24.2871 10.4958 24.2152 10.5676 24.1215 10.6268C24.0278 10.6861 23.931 10.7485 23.8341 10.8171C23.7373 10.8857 23.653 10.9699 23.5874 11.076C23.5218 11.182 23.4905 11.3193 23.4905 11.4939C23.4905 11.6811 23.5311 11.8152 23.6092 11.8963C23.6873 11.9774 23.7842 12.0148 23.8966 12.0148Z" fill="white"/>
<path d="M29.1789 8.93964V11.6782C29.1789 11.8747 29.2101 12.0181 29.2695 12.1117C29.332 12.2053 29.4382 12.2521 29.5975 12.2521V12.3893C29.4632 12.3768 29.3257 12.3706 29.1914 12.3706C29.0071 12.3706 28.8384 12.3768 28.6822 12.3893C28.526 12.4018 28.3761 12.4267 28.2386 12.461V11.8715C28.1324 12.0899 27.9887 12.2458 27.8044 12.3394C27.6201 12.433 27.414 12.4798 27.1859 12.4798C27.0016 12.4798 26.8548 12.4548 26.7423 12.408C26.6299 12.3612 26.5393 12.2989 26.4737 12.224C26.3987 12.1398 26.3456 12.0337 26.3175 11.8965C26.2863 11.7624 26.2706 11.5877 26.2706 11.3725V9.7194C26.2706 9.5229 26.2425 9.37943 26.1832 9.28586C26.1238 9.19229 26.0145 9.1455 25.8521 9.1455V9.00826C25.9926 9.02074 26.1269 9.02698 26.2581 9.02698C26.4425 9.02698 26.6111 9.02074 26.7705 9.00514C26.9298 8.98955 27.0766 8.96771 27.2109 8.93652V11.6407C27.2109 11.7499 27.2203 11.8466 27.239 11.9277C27.2578 12.0119 27.2953 12.0743 27.3546 12.1211C27.4108 12.1679 27.4952 12.1897 27.6045 12.1897C27.7794 12.1897 27.9294 12.118 28.0543 11.9714C28.1793 11.8248 28.2418 11.647 28.2418 11.4318V9.7194C28.2418 9.5229 28.2136 9.37943 28.1543 9.28586C28.0949 9.19229 27.9856 9.1455 27.8232 9.1455V9.00826C27.9637 9.02074 28.0981 9.02698 28.2293 9.02698C28.4136 9.02698 28.5823 9.02074 28.7416 9.00514C28.8946 8.99267 29.0446 8.96771 29.1789 8.93964Z" fill="white"/>
<path d="M31.2131 7.9375V9.01045H31.9847V9.14145H31.2131V11.7802C31.2131 11.9112 31.2381 12.0047 31.285 12.0578C31.3318 12.1108 31.4037 12.1389 31.5005 12.1389C31.5786 12.1389 31.6567 12.1108 31.7348 12.0515C31.8129 11.9923 31.8816 11.8925 31.9441 11.749L32.0565 11.8082C31.9878 12.0047 31.8816 12.1669 31.7379 12.2917C31.5973 12.4165 31.4037 12.482 31.16 12.482C31.0163 12.482 30.8882 12.4632 30.7789 12.4258C30.6696 12.3884 30.579 12.3322 30.504 12.2605C30.4072 12.1638 30.3447 12.0453 30.3134 11.9049C30.2822 11.7646 30.2666 11.5805 30.2666 11.3529V9.14457H29.7168V9.01357H30.2666V8.14959C30.4509 8.14959 30.6196 8.134 30.7726 8.09969C30.9351 8.06538 31.0788 8.01236 31.2131 7.9375Z" fill="white"/>
<path d="M33.5494 8.93848V11.7799C33.5494 11.964 33.5807 12.0856 33.6431 12.1511C33.7056 12.2166 33.8149 12.2478 33.968 12.2478V12.385C33.8899 12.3819 33.7681 12.3757 33.6025 12.3694C33.437 12.3632 33.2683 12.3601 33.0996 12.3601C32.9309 12.3601 32.756 12.3632 32.581 12.3694C32.4061 12.3757 32.2749 12.3819 32.1874 12.385V12.2478C32.3405 12.2478 32.4467 12.2166 32.5123 12.1511C32.5748 12.0856 32.606 11.9608 32.606 11.7799V9.72136C32.606 9.52486 32.5779 9.38138 32.5186 9.28781C32.4592 9.19424 32.3499 9.14745 32.1874 9.14745V9.01022C32.328 9.02269 32.4623 9.02893 32.5935 9.02893C32.7778 9.02893 32.9465 9.02269 33.1058 9.0071C33.2683 8.9915 33.4151 8.96655 33.5494 8.93848Z" fill="white"/>
<path d="M33.0401 7.32324C33.2244 7.32324 33.3681 7.36691 33.4743 7.45736C33.5805 7.54781 33.6336 7.66946 33.6336 7.82541C33.6336 7.98136 33.5805 8.10612 33.4743 8.19346C33.3681 8.28391 33.2213 8.32758 33.0401 8.32758C32.8589 8.32758 32.7121 8.28391 32.6059 8.19346C32.4997 8.103 32.4466 7.98136 32.4466 7.82541C32.4466 7.66946 32.4997 7.5447 32.6059 7.45736C32.7121 7.37003 32.8558 7.32324 33.0401 7.32324Z" fill="white"/>
<path d="M35.9793 7.2793C36.1324 7.2793 36.2636 7.29801 36.3792 7.33856C36.4916 7.37911 36.5916 7.42901 36.679 7.49451C36.7415 7.5413 36.7915 7.60992 36.8352 7.69413C36.879 7.77835 36.9008 7.87504 36.9008 7.9842C36.9008 8.10273 36.8571 8.20565 36.7728 8.29923C36.6884 8.38968 36.576 8.43646 36.4354 8.43646C36.2917 8.43646 36.173 8.39592 36.0793 8.3117C35.9856 8.22749 35.9387 8.1152 35.9387 7.97173C35.9387 7.85944 35.9699 7.75963 36.0355 7.6723C36.1011 7.58496 36.198 7.5257 36.3229 7.48827C36.3104 7.46332 36.2823 7.44149 36.2448 7.42277C36.2042 7.40406 36.1542 7.39782 36.0886 7.39782C36.0012 7.39782 35.9293 7.41342 35.8731 7.44461C35.8169 7.4758 35.77 7.51635 35.7357 7.56937C35.6888 7.63487 35.6544 7.72844 35.6388 7.8532C35.6201 7.97796 35.6138 8.16823 35.6138 8.42399V9.01973H36.3136V9.15073H35.6138V11.7177C35.6138 11.9298 35.6669 12.0733 35.7763 12.145C35.8856 12.2168 36.0355 12.2542 36.2292 12.2542V12.3914C36.1168 12.3883 35.9574 12.3821 35.7513 12.3758C35.5451 12.3696 35.3296 12.3665 35.1046 12.3665C34.9391 12.3665 34.7766 12.3696 34.6173 12.3758C34.458 12.3821 34.3362 12.3883 34.255 12.3914V12.2542C34.408 12.2542 34.5142 12.223 34.5798 12.1575C34.6423 12.092 34.6736 11.9672 34.6736 11.7863V9.15385H34.23V9.02284H34.6736C34.6736 8.63608 34.7048 8.33977 34.7642 8.13704C34.8266 7.9343 34.9328 7.75963 35.0859 7.60992C35.1827 7.51946 35.3108 7.44149 35.4701 7.37911C35.6232 7.31049 35.795 7.2793 35.9793 7.2793Z" fill="white"/>
<path d="M39.8125 8.93964V11.6782C39.8125 11.8747 39.8437 12.0181 39.903 12.1117C39.9655 12.2053 40.0717 12.2521 40.231 12.2521V12.3893C40.0967 12.3768 39.9593 12.3706 39.8249 12.3706C39.6406 12.3706 39.472 12.3768 39.3158 12.3893C39.1596 12.4018 39.0096 12.4267 38.8722 12.461V11.8715C38.766 12.0899 38.6223 12.2458 38.438 12.3394C38.2537 12.433 38.0475 12.4798 37.8195 12.4798C37.6352 12.4798 37.4883 12.4548 37.3759 12.408C37.2634 12.3612 37.1728 12.2989 37.1072 12.224C37.0323 12.1398 36.9792 12.0337 36.951 11.8965C36.9198 11.7624 36.9042 11.5877 36.9042 11.3725V9.7194C36.9042 9.5229 36.8761 9.37943 36.8167 9.28586C36.7574 9.19229 36.648 9.1455 36.4856 9.1455V9.00826C36.6262 9.02074 36.7605 9.02698 36.8917 9.02698C37.076 9.02698 37.2447 9.02074 37.404 9.00514C37.5633 8.98955 37.7101 8.96771 37.8445 8.93652V11.6407C37.8445 11.7499 37.8538 11.8466 37.8726 11.9277C37.8913 12.0119 37.9288 12.0743 37.9882 12.1211C38.0444 12.1679 38.1287 12.1897 38.2381 12.1897C38.413 12.1897 38.5629 12.118 38.6879 11.9714C38.8128 11.8248 38.8753 11.647 38.8753 11.4318V9.7194C38.8753 9.5229 38.8472 9.37943 38.7878 9.28586C38.7285 9.19229 38.6192 9.1455 38.4567 9.1455V9.00826C38.5973 9.02074 38.7316 9.02698 38.8628 9.02698C39.0471 9.02698 39.2158 9.02074 39.3751 9.00514C39.5313 8.99267 39.6781 8.96771 39.8125 8.93964Z" fill="white"/>
<path d="M41.8554 7.27051V11.7807C41.8554 11.9647 41.8867 12.0863 41.9492 12.1518C42.0116 12.2173 42.121 12.2485 42.274 12.2485V12.3857C42.1897 12.3826 42.0679 12.3764 41.9023 12.3702C41.7367 12.3639 41.5681 12.3608 41.3994 12.3608C41.2307 12.3608 41.0589 12.3639 40.8871 12.3702C40.7152 12.3764 40.584 12.3826 40.4966 12.3857V12.2485C40.6496 12.2485 40.7559 12.2173 40.8215 12.1518C40.8839 12.0863 40.9152 11.9616 40.9152 11.7807V8.05651C40.9152 7.86001 40.8871 7.71653 40.8277 7.62296C40.7684 7.52939 40.659 7.4826 40.4966 7.4826V7.34536C40.6372 7.35784 40.7715 7.36408 40.9027 7.36408C41.0807 7.36408 41.2525 7.35784 41.4119 7.34225C41.5712 7.32665 41.7211 7.3017 41.8554 7.27051Z" fill="white"/>
</svg>
