<svg width="54" height="24" viewBox="0 0 54 24" fill="none" xmlns="http://www.w3.org/2000/svg">
<path d="M0.688965 8C0.688965 3.58172 4.27069 0 8.68896 0H45.3112C49.7295 0 53.3112 3.58172 53.3112 8V24H0.688965V8Z" fill="white"/>
<path d="M14.689 8.39844H12.2065V9.5709C13.0619 9.67844 14.0429 10.0247 14.9584 10.5414C15.3508 10.1427 15.6046 9.71254 15.6046 9.31647C15.6072 8.81024 15.1965 8.39844 14.689 8.39844Z" fill="#F8ADBF"/>
<path d="M16.834 14.322C16.834 13.5037 16.078 12.604 15.0709 11.8984C14.1998 12.5489 13.1221 13.0106 12.2065 13.1496V15.6414H15.5182C16.2455 15.6414 16.834 15.0512 16.834 14.322Z" fill="#F8ADBF"/>
<path d="M12.2065 10.6724V12.0415C12.7925 11.9261 13.4491 11.6455 14.0272 11.2783C13.4177 10.9792 12.7847 10.7615 12.2065 10.6724Z" fill="#F8ADBF"/>
<path d="M15.8952 11.1476C16.3818 10.5968 16.6957 9.96991 16.6957 9.31942C16.6957 8.20991 15.7958 7.30762 14.6893 7.30762H11.1187V9.53713V13.1935V16.7345H15.5212C16.8474 16.7345 17.9278 15.6512 17.9278 14.3214C17.9252 12.9129 16.7559 11.785 15.8952 11.1476ZM12.2069 8.39876H14.6893C15.1942 8.39876 15.6049 8.81057 15.6049 9.3168C15.6049 9.71286 15.3511 10.1404 14.9588 10.5417C14.0432 10.025 13.0622 9.68139 12.2069 9.57122V8.39876ZM12.2069 10.6729C12.785 10.762 13.418 10.9797 14.0275 11.2788C13.4494 11.6434 12.7928 11.924 12.2069 12.042V10.6729ZM15.5186 15.6407H12.2069V13.1489C13.1224 13.0099 14.2002 12.5483 15.0712 11.8978C16.0783 12.6034 16.8343 13.503 16.8343 14.3214C16.8343 15.0506 16.2458 15.6407 15.5186 15.6407Z" fill="#242424"/>
<path d="M18.9437 7.71191C19.0405 7.71454 19.1713 7.71978 19.3361 7.72241C19.5009 7.72765 19.6657 7.72765 19.8279 7.72765C20.0136 7.72765 20.1941 7.72503 20.3694 7.72241C20.5446 7.71978 20.6676 7.71716 20.7434 7.71716C21.2247 7.71716 21.5857 7.80372 21.8238 7.97421C22.0618 8.1447 22.1822 8.36503 22.1822 8.63519C22.1822 8.77159 22.1403 8.9106 22.0592 9.04962C21.9781 9.18864 21.8526 9.31454 21.6799 9.4247C21.5099 9.53486 21.2875 9.61355 21.0155 9.66339V9.67388C21.3817 9.70011 21.6694 9.76831 21.8839 9.87323C22.0985 9.97814 22.2502 10.104 22.3443 10.2536C22.4385 10.4004 22.483 10.5552 22.483 10.7152C22.483 11.0824 22.3391 11.3631 22.054 11.5572C21.7689 11.7513 21.3739 11.8483 20.8742 11.8483C20.7801 11.8483 20.6466 11.8457 20.4688 11.8404C20.2909 11.8352 20.0816 11.8326 19.8357 11.8326C19.6657 11.8326 19.4957 11.8326 19.3309 11.8352C19.1661 11.8378 19.0353 11.8431 18.9385 11.8509V11.7329C19.064 11.725 19.1556 11.7093 19.2184 11.6857C19.2812 11.6621 19.323 11.6149 19.3439 11.5467C19.3649 11.4758 19.3753 11.3709 19.3753 11.2319V8.33093C19.3753 8.18667 19.3649 8.08175 19.3439 8.01355C19.323 7.94536 19.2785 7.89814 19.2158 7.87454C19.1504 7.84831 19.0588 7.83519 18.9385 7.82995V7.71191H18.9437ZM20.6702 7.82732C20.5185 7.82732 20.4217 7.86142 20.3746 7.927C20.3301 7.99257 20.3066 8.12896 20.3066 8.33093V11.2293C20.3066 11.4313 20.3327 11.5624 20.3824 11.6227C20.4321 11.6831 20.542 11.7145 20.7094 11.7145C20.9893 11.7145 21.1934 11.6254 21.3242 11.4496C21.4549 11.2713 21.5203 11.0195 21.5203 10.6916C21.5203 10.3926 21.4445 10.1591 21.2954 9.9965C21.1463 9.83388 20.8978 9.74995 20.5525 9.74995H20.0581V9.65027H20.5603C20.7434 9.65027 20.8821 9.60568 20.9789 9.51913C21.0756 9.43257 21.1437 9.31454 21.1829 9.16765C21.2221 9.02077 21.2404 8.86601 21.2404 8.69814C21.2404 8.40962 21.196 8.19191 21.107 8.04765C21.0155 7.90077 20.8716 7.82732 20.6702 7.82732Z" fill="#242424"/>
<path d="M24.3047 8.74512C24.5872 8.74512 24.8358 8.79758 25.0503 8.90249C25.2648 9.00741 25.4322 9.1779 25.5525 9.41135C25.6728 9.64479 25.733 9.9543 25.733 10.3399C25.733 10.7254 25.6728 11.035 25.5525 11.2658C25.4322 11.4966 25.2648 11.6671 25.0503 11.772C24.8358 11.8769 24.5872 11.9294 24.3047 11.9294C24.0301 11.9294 23.7842 11.8769 23.5671 11.772C23.3526 11.6671 23.1825 11.4992 23.0596 11.2658C22.9366 11.035 22.8765 10.7254 22.8765 10.3399C22.8765 9.9543 22.9366 9.64479 23.0596 9.41135C23.1825 9.1779 23.3499 9.00741 23.5671 8.90249C23.7816 8.79758 24.0274 8.74512 24.3047 8.74512ZM24.3047 8.86315C24.1504 8.86315 24.0196 8.97856 23.915 9.212C23.8103 9.44282 23.758 9.82053 23.758 10.3425C23.758 10.8645 23.8103 11.2395 23.915 11.4704C24.0196 11.7012 24.1504 11.814 24.3047 11.814C24.4643 11.814 24.5951 11.6986 24.6971 11.4704C24.7991 11.2395 24.8514 10.8645 24.8514 10.3425C24.8514 9.82053 24.7991 9.44282 24.6971 9.212C24.5951 8.97856 24.4643 8.86315 24.3047 8.86315Z" fill="#242424"/>
<path d="M27.5997 8.74512C27.8822 8.74512 28.1307 8.79758 28.3452 8.90249C28.5597 9.00741 28.7271 9.1779 28.8474 9.41135C28.9678 9.64479 29.0279 9.9543 29.0279 10.3399C29.0279 10.7254 28.9678 11.035 28.8474 11.2658C28.7271 11.4966 28.5597 11.6671 28.3452 11.772C28.1307 11.8769 27.8822 11.9294 27.5997 11.9294C27.325 11.9294 27.0791 11.8769 26.862 11.772C26.6475 11.6671 26.4774 11.4992 26.3545 11.2658C26.2316 11.035 26.1714 10.7254 26.1714 10.3399C26.1714 9.9543 26.2316 9.64479 26.3545 9.41135C26.4774 9.1779 26.6449 9.00741 26.862 8.90249C27.0765 8.79758 27.3224 8.74512 27.5997 8.74512ZM27.5997 8.86315C27.4453 8.86315 27.3145 8.97856 27.2099 9.212C27.1053 9.44282 27.0529 9.82053 27.0529 10.3425C27.0529 10.8645 27.1053 11.2395 27.2099 11.4704C27.3145 11.7012 27.4453 11.814 27.5997 11.814C27.7592 11.814 27.89 11.6986 27.992 11.4704C28.0941 11.2395 28.1464 10.8645 28.1464 10.3425C28.1464 9.82053 28.0941 9.44282 27.992 9.212C27.89 8.97856 27.7592 8.86315 27.5997 8.86315Z" fill="#242424"/>
<path d="M30.5137 7.27344V11.3049C30.5137 11.4675 30.5399 11.5803 30.5922 11.638C30.6445 11.6957 30.7361 11.7246 30.8643 11.7246V11.8479C30.791 11.8452 30.6838 11.84 30.5399 11.8321C30.3986 11.8269 30.2522 11.8243 30.1057 11.8243C29.9539 11.8243 29.8022 11.8269 29.6479 11.8321C29.4936 11.8374 29.3785 11.8426 29.3 11.8479V11.7246C29.436 11.7246 29.5328 11.6957 29.5877 11.638C29.6453 11.5803 29.6714 11.4675 29.6714 11.3049V7.97377C29.6714 7.79803 29.6453 7.6695 29.593 7.58557C29.5406 7.50163 29.4412 7.45967 29.2974 7.45967V7.33639C29.4229 7.34688 29.5433 7.35475 29.6584 7.35475C29.8179 7.35475 29.9696 7.34688 30.1135 7.33377C30.26 7.32065 30.3934 7.29967 30.5137 7.27344ZM32.4129 8.82622V8.94426C32.2925 8.96786 32.1722 9.0177 32.0519 9.09639C31.9315 9.17508 31.8086 9.27475 31.6857 9.39541L31.2357 9.86229L31.2933 9.75213L32.2899 11.4229C32.3318 11.4938 32.3762 11.5567 32.4233 11.6092C32.4704 11.6643 32.5254 11.7036 32.5934 11.7272V11.8505C32.5358 11.8479 32.4469 11.8426 32.3318 11.8348C32.2141 11.8295 32.099 11.8269 31.9813 11.8269C31.8374 11.8269 31.6935 11.8295 31.5496 11.8348C31.4058 11.84 31.2985 11.8452 31.2279 11.8505V11.7272C31.3064 11.7272 31.3587 11.7088 31.3848 11.6721C31.411 11.6354 31.4084 11.5882 31.3744 11.5279L30.7963 10.4813C30.7492 10.4079 30.7047 10.3607 30.6602 10.337C30.6158 10.3161 30.5556 10.3029 30.4824 10.3003V10.1902C30.5634 10.1823 30.6341 10.1692 30.6942 10.1482C30.7544 10.1298 30.8093 10.0905 30.8617 10.038L31.3037 9.60524C31.4345 9.47934 31.5025 9.36918 31.5025 9.27213C31.5025 9.17508 31.4607 9.09639 31.377 9.03868C31.2933 8.98098 31.1834 8.9495 31.0474 8.94426V8.82622C31.1572 8.82885 31.275 8.83409 31.4031 8.83672C31.5313 8.84196 31.6412 8.84196 31.7301 8.84196C31.8086 8.84196 31.8897 8.84196 31.9786 8.83934C32.065 8.83672 32.1487 8.83672 32.2271 8.83409C32.303 8.83409 32.3658 8.83147 32.4129 8.82622Z" fill="#242424"/>
<path d="M35.2791 8.76367V11.3053C35.2791 11.4679 35.3078 11.5807 35.3628 11.6384C35.4203 11.6961 35.5145 11.725 35.6505 11.725V11.8483C35.5799 11.8456 35.4726 11.8404 35.3235 11.8325C35.1771 11.8273 35.0253 11.8247 34.8736 11.8247C34.7219 11.8247 34.5675 11.8273 34.4132 11.8325C34.2589 11.8378 34.1412 11.843 34.0627 11.8483V11.725C34.1987 11.725 34.2955 11.6961 34.3504 11.6384C34.408 11.5807 34.4341 11.4679 34.4341 11.3053V9.464C34.4341 9.28826 34.408 9.15974 34.3557 9.0758C34.3033 8.99187 34.2039 8.9499 34.0601 8.9499V8.82662C34.1856 8.83711 34.306 8.84498 34.4211 8.84498C34.5832 8.84498 34.7376 8.83711 34.8788 8.824C35.0279 8.81088 35.1587 8.7899 35.2791 8.76367Z" fill="#242424"/>
<path d="M34.8269 7.31836C34.9891 7.31836 35.1199 7.3577 35.2141 7.43902C35.3082 7.5177 35.3579 7.62787 35.3579 7.76951C35.3579 7.90852 35.3109 8.01869 35.2141 8.1C35.1199 8.17869 34.9891 8.22065 34.8269 8.22065C34.6647 8.22065 34.5339 8.18131 34.4398 8.1C34.3456 8.02131 34.2959 7.91115 34.2959 7.76951C34.2959 7.63049 34.343 7.52033 34.4398 7.43902C34.5339 7.36033 34.6621 7.31836 34.8269 7.31836Z" fill="white"/>
<path d="M38.0727 8.74512C38.2349 8.74512 38.3683 8.7661 38.473 8.80545C38.575 8.84741 38.6561 8.90249 38.7136 8.97331C38.7764 9.04676 38.8209 9.14381 38.8496 9.25922C38.8784 9.37725 38.8941 9.53463 38.8941 9.73135V11.3025C38.8941 11.4651 38.9229 11.5779 38.9778 11.6356C39.0354 11.6933 39.1295 11.7222 39.2656 11.7222V11.8454C39.1923 11.8428 39.0798 11.8376 38.9334 11.8297C38.7869 11.8245 38.6404 11.8218 38.4965 11.8218C38.35 11.8218 38.2035 11.8245 38.0623 11.8297C37.921 11.835 37.8138 11.8402 37.7379 11.8454V11.7222C37.8556 11.7222 37.9367 11.6933 37.9838 11.6356C38.0309 11.5779 38.0544 11.4651 38.0544 11.3025V9.48479C38.0544 9.38774 38.044 9.30381 38.0256 9.23036C38.0073 9.15954 37.9707 9.10184 37.921 9.05987C37.8713 9.0179 37.7954 8.99954 37.6934 8.99954C37.5312 8.99954 37.3926 9.06512 37.2827 9.19364C37.1729 9.32217 37.1153 9.48479 37.1153 9.67889V11.3025C37.1153 11.4651 37.1389 11.5779 37.1886 11.6356C37.2383 11.6933 37.3167 11.7222 37.4292 11.7222V11.8454C37.3586 11.8428 37.2566 11.8376 37.1232 11.8297C36.9898 11.8245 36.8511 11.8218 36.7072 11.8218C36.5607 11.8218 36.409 11.8245 36.2521 11.8297C36.0977 11.835 35.98 11.8402 35.9015 11.8454V11.7222C36.0376 11.7222 36.1344 11.6933 36.1893 11.6356C36.2468 11.5779 36.273 11.4651 36.273 11.3025V9.46118C36.273 9.28545 36.2468 9.15692 36.1945 9.07299C36.1422 8.98905 36.0428 8.94708 35.8989 8.94708V8.82643C36.0245 8.83692 36.1448 8.84479 36.2599 8.84479C36.4221 8.84479 36.5764 8.83692 36.7177 8.82381C36.859 8.81069 36.9898 8.78971 37.1101 8.76348V9.29069C37.2069 9.09135 37.3403 8.95233 37.5077 8.87102C37.6777 8.78708 37.8661 8.74512 38.0727 8.74512Z" fill="#242424"/>
<path d="M18.9437 12.3672C19.0405 12.3698 19.1713 12.3751 19.3361 12.3777C19.5009 12.3829 19.6657 12.3829 19.8279 12.3829C20.0136 12.3829 20.1941 12.3803 20.3694 12.3777C20.5446 12.3751 20.6676 12.3724 20.7434 12.3724C21.2247 12.3724 21.5857 12.459 21.8238 12.6295C22.0618 12.8 22.1822 13.0203 22.1822 13.2905C22.1822 13.4269 22.1403 13.5659 22.0592 13.7049C21.9781 13.8439 21.8526 13.9698 21.6799 14.08C21.5099 14.1901 21.2875 14.2688 21.0155 14.3187V14.3292C21.3817 14.3554 21.6694 14.4236 21.8839 14.5285C22.0985 14.6334 22.2502 14.7593 22.3443 14.9088C22.4385 15.0557 22.483 15.2105 22.483 15.3705C22.483 15.7377 22.3391 16.0183 22.054 16.2124C21.7689 16.4065 21.3739 16.5036 20.8742 16.5036C20.7801 16.5036 20.6466 16.501 20.4688 16.4957C20.2909 16.4905 20.0816 16.4878 19.8357 16.4878C19.6657 16.4878 19.4957 16.4878 19.3309 16.4905C19.1661 16.4931 19.0353 16.4983 18.9385 16.5062V16.3882C19.064 16.3803 19.1556 16.3646 19.2184 16.341C19.2812 16.3174 19.323 16.2701 19.3439 16.2019C19.3649 16.1311 19.3753 16.0262 19.3753 15.8872V12.9862C19.3753 12.8419 19.3649 12.737 19.3439 12.6688C19.323 12.6006 19.2785 12.5534 19.2158 12.5298C19.1504 12.5036 19.0588 12.4905 18.9385 12.4852V12.3672H18.9437ZM20.6702 12.4826C20.5185 12.4826 20.4217 12.5167 20.3746 12.5823C20.3301 12.6478 20.3066 12.7842 20.3066 12.9862V15.8846C20.3066 16.0865 20.3327 16.2177 20.3824 16.278C20.4321 16.3383 20.542 16.3698 20.7094 16.3698C20.9893 16.3698 21.1934 16.2806 21.3242 16.1049C21.4549 15.9265 21.5203 15.6747 21.5203 15.3469C21.5203 15.0478 21.4445 14.8144 21.2954 14.6518C21.1463 14.4892 20.8978 14.4052 20.5525 14.4052H20.0581V14.3055H20.5603C20.7434 14.3055 20.8821 14.261 20.9789 14.1744C21.0756 14.0878 21.1437 13.9698 21.1829 13.8229C21.2221 13.676 21.2404 13.5213 21.2404 13.3534C21.2404 13.0649 21.196 12.8472 21.107 12.7029C21.0155 12.556 20.8716 12.4826 20.6702 12.4826Z" fill="#242424"/>
<path d="M24.3073 13.4009C24.65 13.4009 24.9168 13.5032 25.1104 13.7051C25.304 13.9071 25.4008 14.2402 25.4008 14.6992H23.4833L23.4729 14.5891H24.6683C24.671 14.3976 24.6605 14.2219 24.6343 14.0592C24.6082 13.8966 24.5637 13.7681 24.5062 13.671C24.4486 13.574 24.3701 13.5242 24.2733 13.5242C24.1373 13.5242 24.0222 13.6107 23.9254 13.7812C23.8313 13.9517 23.7737 14.2376 23.7528 14.6337L23.7711 14.6678C23.7659 14.715 23.7632 14.7622 23.7632 14.8146C23.7606 14.8645 23.7606 14.9169 23.7606 14.972C23.7606 15.2396 23.7973 15.4599 23.8731 15.6278C23.949 15.7956 24.0458 15.9163 24.1609 15.9924C24.2786 16.0684 24.3963 16.1051 24.5166 16.1051C24.6343 16.1051 24.7599 16.0763 24.8985 16.0186C25.0372 15.9609 25.1654 15.8324 25.2857 15.6383L25.3903 15.6724C25.3432 15.8192 25.27 15.9635 25.168 16.1051C25.066 16.2442 24.9378 16.3596 24.7834 16.4487C24.6291 16.5379 24.4408 16.5825 24.2236 16.5825C23.9594 16.5825 23.7266 16.5248 23.5252 16.412C23.3238 16.2992 23.1642 16.1287 23.0491 15.8979C22.934 15.6671 22.8765 15.376 22.8765 15.0219C22.8765 14.6599 22.9366 14.3583 23.0596 14.1169C23.1825 13.8756 23.3499 13.6946 23.5671 13.5766C23.7842 13.4612 24.0301 13.4009 24.3073 13.4009Z" fill="#242424"/>
<path d="M26.5074 16.5458C26.2458 16.5458 26.0575 16.4776 25.9424 16.3412C25.8246 16.2048 25.7671 16.0396 25.7671 15.8455C25.7671 15.6776 25.8037 15.5412 25.8796 15.4363C25.9554 15.3314 26.0522 15.2448 26.1752 15.1766C26.2955 15.1084 26.4237 15.0507 26.5571 15.0061C26.6905 14.9615 26.8187 14.9169 26.9416 14.8724C27.0646 14.8278 27.164 14.7753 27.2398 14.7176C27.3157 14.6599 27.3523 14.5865 27.3523 14.4946V14.0383C27.3523 13.936 27.3366 13.8468 27.3026 13.7655C27.2686 13.6868 27.2189 13.6238 27.1509 13.5819C27.0829 13.5399 26.9939 13.5163 26.8867 13.5163C26.8082 13.5163 26.7323 13.5268 26.6539 13.5478C26.5754 13.5687 26.5126 13.6055 26.4603 13.6553C26.5702 13.6946 26.6539 13.755 26.714 13.8337C26.7742 13.9124 26.8056 14.0042 26.8056 14.1065C26.8056 14.2402 26.7611 14.3451 26.6696 14.4212C26.578 14.4999 26.4708 14.5392 26.3452 14.5392C26.2066 14.5392 26.0993 14.4946 26.0287 14.4081C25.9554 14.3215 25.9214 14.214 25.9214 14.0907C25.9214 13.9779 25.9502 13.8835 26.0051 13.8101C26.0627 13.7366 26.1412 13.6658 26.2406 13.6002C26.3504 13.5373 26.4812 13.4901 26.6329 13.4533C26.7873 13.4192 26.9521 13.4009 27.13 13.4009C27.3078 13.4009 27.47 13.4192 27.6139 13.456C27.7578 13.4927 27.8781 13.5609 27.9749 13.6579C28.0638 13.7471 28.1214 13.8573 28.1501 13.9884C28.1763 14.1196 28.192 14.2848 28.192 14.4815V16.071C28.192 16.1655 28.2025 16.231 28.2208 16.2704C28.2391 16.3097 28.2731 16.3281 28.3202 16.3281C28.3594 16.3281 28.396 16.3176 28.43 16.2992C28.4641 16.2809 28.4981 16.2573 28.5295 16.2284L28.587 16.3281C28.5059 16.3989 28.4117 16.4514 28.3045 16.4881C28.1972 16.5248 28.0769 16.5432 27.9461 16.5432C27.7133 16.5432 27.559 16.496 27.4831 16.3989C27.4072 16.3045 27.368 16.1943 27.3628 16.0684C27.266 16.2284 27.1457 16.3465 27.0044 16.4251C26.8631 16.5065 26.6983 16.5458 26.5074 16.5458ZM26.9573 16.1707C27.0306 16.1707 27.1012 16.1524 27.164 16.1183C27.2294 16.0842 27.2921 16.0212 27.3523 15.932V14.7333C27.3052 14.812 27.2398 14.8776 27.1561 14.9301C27.0724 14.9825 26.9861 15.0402 26.8998 15.1006C26.8134 15.1609 26.7402 15.2369 26.68 15.3314C26.6225 15.4258 26.5937 15.5491 26.5937 15.7065C26.5937 15.8743 26.6277 15.995 26.6983 16.0658C26.769 16.134 26.8553 16.1707 26.9573 16.1707Z" fill="#242424"/>
<path d="M31.6604 13.4189V15.8688C31.6604 16.0445 31.6866 16.173 31.7415 16.257C31.7964 16.3409 31.8932 16.3829 32.0319 16.3829V16.5062C31.9115 16.4957 31.7912 16.4878 31.6709 16.4878C31.5087 16.4878 31.357 16.493 31.2157 16.5062C31.0771 16.5167 30.9437 16.5403 30.8207 16.5717V16.0445C30.7266 16.2386 30.5984 16.3776 30.4336 16.4616C30.2688 16.5455 30.0857 16.5875 29.8816 16.5875C29.7194 16.5875 29.586 16.5665 29.484 16.5219C29.382 16.4799 29.3035 16.4248 29.246 16.3593C29.1806 16.2858 29.1335 16.1888 29.1073 16.0681C29.0812 15.9475 29.0655 15.7927 29.0655 15.6012V14.1219C29.0655 13.9462 29.0393 13.8176 28.987 13.7337C28.9347 13.6498 28.8353 13.6078 28.6914 13.6078V13.4845C28.817 13.495 28.9373 13.5029 29.0524 13.5029C29.2146 13.5029 29.3689 13.495 29.5102 13.4819C29.6514 13.4688 29.7822 13.4478 29.9026 13.4216V15.8399C29.9026 15.937 29.9104 16.0235 29.9287 16.097C29.947 16.1704 29.981 16.2281 30.0307 16.2701C30.0804 16.3121 30.1563 16.3304 30.2531 16.3304C30.4074 16.3304 30.5408 16.2648 30.6533 16.1337C30.7632 16.0026 30.8207 15.8426 30.8207 15.6511V14.1193C30.8207 13.9435 30.7946 13.815 30.7422 13.7311C30.6899 13.6471 30.5905 13.6052 30.4467 13.6052V13.4819C30.5722 13.4924 30.6925 13.5003 30.8076 13.5003C30.9698 13.5003 31.1242 13.4924 31.2654 13.4793C31.4093 13.4662 31.5401 13.4452 31.6604 13.4189Z" fill="#242424"/>
<path d="M33.4749 12.5254V13.4828H34.1628V13.6008H33.4749V15.9615C33.4749 16.0795 33.4958 16.1608 33.5403 16.2106C33.5821 16.2605 33.6475 16.2841 33.7338 16.2841C33.8045 16.2841 33.8725 16.2578 33.9431 16.2054C34.0137 16.1529 34.0739 16.0611 34.1288 15.9326L34.2282 15.9851C34.1654 16.1608 34.0713 16.3051 33.9457 16.4178C33.8202 16.5306 33.6475 16.5883 33.4304 16.5883C33.3022 16.5883 33.1897 16.5726 33.0929 16.5385C32.9962 16.5044 32.9151 16.4546 32.847 16.389C32.7607 16.3024 32.7058 16.1975 32.677 16.0716C32.6509 15.9457 32.6352 15.7805 32.6352 15.5785V13.6008H32.146V13.4828H32.6352V12.7116C32.7973 12.7116 32.9491 12.6959 33.0877 12.667C33.2237 12.6382 33.3545 12.591 33.4749 12.5254Z" fill="#242424"/>
<path d="M35.553 13.4189V15.9606C35.553 16.1232 35.5818 16.236 35.6367 16.2937C35.6942 16.3514 35.7884 16.3803 35.9244 16.3803V16.5035C35.8538 16.5009 35.7466 16.4957 35.5975 16.4878C35.451 16.4826 35.2992 16.4799 35.1475 16.4799C34.9958 16.4799 34.8415 16.4826 34.6871 16.4878C34.5328 16.493 34.4151 16.4983 34.3366 16.5035V16.3803C34.4726 16.3803 34.5694 16.3514 34.6243 16.2937C34.6819 16.236 34.7081 16.1232 34.7081 15.9606V14.1193C34.7081 13.9435 34.6819 13.815 34.6296 13.7311C34.5773 13.6471 34.4779 13.6052 34.334 13.6052V13.4819C34.4595 13.4924 34.5799 13.5003 34.695 13.5003C34.8572 13.5003 35.0115 13.4924 35.1528 13.4793C35.3019 13.4662 35.4327 13.4452 35.553 13.4189Z" fill="#242424"/>
<path d="M35.0984 11.9736C35.2606 11.9736 35.3914 12.013 35.4856 12.0943C35.5797 12.173 35.6294 12.2831 35.6294 12.4248C35.6294 12.5638 35.5823 12.674 35.4856 12.7553C35.3914 12.834 35.2606 12.8759 35.0984 12.8759C34.9362 12.8759 34.8054 12.8366 34.7113 12.7553C34.6171 12.6766 34.5674 12.5664 34.5674 12.4248C34.5674 12.2858 34.6145 12.1756 34.7113 12.0943C34.8054 12.0156 34.9362 11.9736 35.0984 11.9736Z" fill="#242424"/>
<path d="M37.7165 11.9346C37.8525 11.9346 37.9702 11.9529 38.0722 11.987C38.1743 12.0211 38.2632 12.0683 38.3391 12.126C38.394 12.168 38.4411 12.2283 38.4777 12.3044C38.5169 12.3805 38.5352 12.467 38.5352 12.5641C38.5352 12.669 38.4986 12.7634 38.4228 12.8447C38.3469 12.926 38.2475 12.968 38.1219 12.968C37.9938 12.968 37.8865 12.9313 37.8054 12.8578C37.7217 12.7844 37.6799 12.6821 37.6799 12.5536C37.6799 12.4513 37.7086 12.3621 37.7662 12.286C37.8237 12.2074 37.9101 12.1549 38.0225 12.1234C38.0121 12.0998 37.9885 12.0815 37.9519 12.0657C37.9179 12.05 37.8708 12.0421 37.8133 12.0421C37.7348 12.0421 37.672 12.0552 37.6197 12.0841C37.57 12.1103 37.5281 12.1497 37.4968 12.1942C37.4549 12.2519 37.4235 12.3385 37.4104 12.4487C37.3947 12.5588 37.3869 12.7293 37.3869 12.9601V13.4926H38.0095V13.6106H37.3869V15.9083C37.3869 16.0998 37.4366 16.2257 37.5334 16.2913C37.6302 16.3569 37.7636 16.3883 37.9362 16.3883V16.5116C37.8342 16.509 37.6929 16.5038 37.5098 16.4959C37.3267 16.4906 37.1358 16.488 36.9317 16.488C36.7852 16.488 36.6388 16.4906 36.4975 16.4959C36.3562 16.5011 36.249 16.5064 36.1731 16.5116V16.3805C36.3092 16.3805 36.4059 16.3516 36.4609 16.2939C36.5184 16.2362 36.5446 16.1234 36.5446 15.9608V13.6054H36.147V13.4874H36.5446C36.5446 13.1411 36.5707 12.8762 36.6257 12.6952C36.6806 12.5142 36.7748 12.3569 36.9108 12.2257C36.9971 12.1444 37.1096 12.0736 37.2509 12.0185C37.4 11.9634 37.5517 11.9346 37.7165 11.9346Z" fill="#242424"/>
<path d="M41.1316 13.4189V15.8688C41.1316 16.0445 41.1578 16.173 41.2127 16.257C41.2676 16.3409 41.3644 16.3829 41.5031 16.3829V16.5062C41.3827 16.4957 41.2624 16.4878 41.1421 16.4878C40.9799 16.4878 40.8282 16.493 40.6869 16.5062C40.5483 16.5167 40.4149 16.5403 40.2919 16.5717V16.0445C40.1977 16.2386 40.0696 16.3776 39.9048 16.4616C39.74 16.5455 39.5569 16.5875 39.3528 16.5875C39.1906 16.5875 39.0572 16.5665 38.9552 16.5219C38.8532 16.4799 38.7747 16.4248 38.7172 16.3593C38.6518 16.2858 38.6047 16.1888 38.5785 16.0681C38.5524 15.9475 38.5367 15.7927 38.5367 15.6012V14.1219C38.5367 13.9462 38.5105 13.8176 38.4582 13.7337C38.4059 13.6498 38.3065 13.6078 38.1626 13.6078V13.4845C38.2882 13.495 38.4085 13.5029 38.5236 13.5029C38.6858 13.5029 38.8401 13.495 38.9814 13.4819C39.1226 13.4688 39.2534 13.4478 39.3737 13.4216V15.8399C39.3737 15.937 39.3816 16.0235 39.3999 16.097C39.4182 16.1704 39.4522 16.2281 39.5019 16.2701C39.5516 16.3121 39.6275 16.3304 39.7243 16.3304C39.8786 16.3304 40.012 16.2648 40.1245 16.1337C40.2344 16.0026 40.2919 15.8426 40.2919 15.6511V14.1193C40.2919 13.9435 40.2658 13.815 40.2134 13.7311C40.1611 13.6471 40.0617 13.6052 39.9179 13.6052V13.4819C40.0434 13.4924 40.1637 13.5003 40.2788 13.5003C40.441 13.5003 40.5954 13.4924 40.7366 13.4793C40.8805 13.4662 41.0113 13.4452 41.1316 13.4189Z" fill="#242424"/>
<path d="M42.9495 11.9292V15.9607C42.9495 16.1233 42.9782 16.2361 43.0332 16.2938C43.0907 16.3515 43.1849 16.3803 43.3209 16.3803V16.5036C43.2477 16.501 43.1352 16.4958 42.9887 16.4879C42.8422 16.4826 42.6905 16.48 42.5388 16.48C42.3871 16.48 42.2353 16.4826 42.081 16.4879C41.9267 16.4931 41.8116 16.4984 41.7331 16.5036V16.3803C41.8691 16.3803 41.9659 16.3515 42.0208 16.2938C42.0784 16.2361 42.1045 16.1233 42.1045 15.9607V12.6295C42.1045 12.4538 42.0784 12.3253 42.0261 12.2413C41.9737 12.1574 41.8743 12.1154 41.7305 12.1154V11.9922C41.856 12.0026 41.9764 12.0105 42.0915 12.0105C42.251 12.0105 42.4027 12.0026 42.5466 11.9895C42.6983 11.9764 42.8291 11.9554 42.9495 11.9292Z" fill="#242424"/>
</svg>
